<svg width="73" height="32" viewBox="0 0 73 32" fill="none" xmlns="http://www.w3.org/2000/svg">
<path d="M58.856 0.0911988C58.217 6.13075e-07 57.6696 0 57.0312 0C48.819 0 36.0436 12.6173 34.5836 14.0796C29.7473 18.9253 20.5313 26.6052 15.9685 26.6052C15.3294 26.6052 14.691 26.514 14.1437 26.4221C9.21645 25.5076 5.47502 21.2104 5.47502 15.9993C5.47502 10.1479 10.2202 5.48536 15.9685 5.48536C18.8888 5.48536 24.7289 9.05106 31.2073 14.8112C31.9374 14.1709 32.6675 13.44 33.3059 12.7998C33.5796 12.5256 34.2187 11.8852 35.1308 10.9714C29.3818 5.85156 21.6259 0.000146982 15.9682 0.000146982C7.20846 0.000146982 0 7.22266 0 16.0001C0 24.2283 6.2047 30.9944 14.144 31.9088C14.783 32 15.3304 32 15.9688 32C24.181 32 36.9564 19.3827 38.4164 17.9204C43.2527 13.0747 52.4687 5.39484 57.0315 5.39484C57.6706 5.39484 58.309 5.48604 58.8564 5.57788C63.7842 6.49179 67.525 10.7883 67.525 16.0001C67.525 21.8515 62.7798 26.514 57.0315 26.514C54.1112 26.514 48.3629 22.9483 41.7927 17.1881C41.0626 17.8284 40.3325 18.5593 39.6941 19.1996C39.3294 19.565 38.6903 20.2053 37.7775 21.028C43.5264 26.1478 51.2824 31.9992 56.9401 31.9992C65.7914 31.9998 73 24.7773 73 15.9999C73 7.77167 66.7953 1.00565 58.856 0.0911988Z" fill="#24FF00"/>
</svg>
